<mxfile host="app.diagrams.net" modified="2022-11-03T17:34:56.571Z" agent="5.0 (Windows NT 10.0; Win64; x64) AppleWebKit/537.36 (KHTML, like Gecko) Chrome/107.0.0.0 Safari/537.36" etag="FRemZ1BQGd_Y_n7aE6To" version="20.5.1" type="github">
  <diagram id="ZhyXs2sG57gM73b3agKA" name="ページ1">
    <mxGraphModel dx="782" dy="730" grid="1" gridSize="10" guides="1" tooltips="1" connect="1" arrows="1" fold="1" page="1" pageScale="1" pageWidth="827" pageHeight="1169" math="0" shadow="0">
      <root>
        <mxCell id="0" />
        <mxCell id="1" parent="0" />
        <mxCell id="LrvvoULdtSDVL5VCerUx-2" value="&lt;font style=&quot;font-size: 16px;&quot;&gt;味方1が&lt;br&gt;ボール保持者&lt;/font&gt;" style="rounded=0;whiteSpace=wrap;html=1;" parent="1" vertex="1">
          <mxGeometry x="344" y="250" width="140" height="70" as="geometry" />
        </mxCell>
        <mxCell id="LrvvoULdtSDVL5VCerUx-3" value="&lt;font style=&quot;font-size: 16px;&quot;&gt;味方1が&lt;br&gt;ボール保持者&lt;/font&gt;" style="rounded=0;whiteSpace=wrap;html=1;" parent="1" vertex="1">
          <mxGeometry x="624" y="430" width="140" height="70" as="geometry" />
        </mxCell>
        <mxCell id="LrvvoULdtSDVL5VCerUx-4" value="&lt;font style=&quot;font-size: 16px;&quot;&gt;敵2が&lt;br&gt;ボール保持者&lt;/font&gt;" style="rounded=0;whiteSpace=wrap;html=1;" parent="1" vertex="1">
          <mxGeometry x="344" y="430" width="140" height="70" as="geometry" />
        </mxCell>
        <mxCell id="LrvvoULdtSDVL5VCerUx-5" value="&lt;font style=&quot;font-size: 16px;&quot;&gt;味方2が&lt;br&gt;ボール保持者&lt;/font&gt;" style="rounded=0;whiteSpace=wrap;html=1;" parent="1" vertex="1">
          <mxGeometry x="64" y="430" width="140" height="70" as="geometry" />
        </mxCell>
        <mxCell id="LrvvoULdtSDVL5VCerUx-8" value="" style="endArrow=classic;html=1;rounded=0;fontSize=16;exitX=0.5;exitY=1;exitDx=0;exitDy=0;entryX=0.5;entryY=0;entryDx=0;entryDy=0;strokeWidth=3;" parent="1" source="LrvvoULdtSDVL5VCerUx-2" target="LrvvoULdtSDVL5VCerUx-5" edge="1">
          <mxGeometry width="50" height="50" relative="1" as="geometry">
            <mxPoint x="324" y="380" as="sourcePoint" />
            <mxPoint x="374" y="330" as="targetPoint" />
          </mxGeometry>
        </mxCell>
        <mxCell id="LrvvoULdtSDVL5VCerUx-9" value="Pass2" style="edgeLabel;html=1;align=center;verticalAlign=middle;resizable=0;points=[];fontSize=16;" parent="LrvvoULdtSDVL5VCerUx-8" vertex="1" connectable="0">
          <mxGeometry x="0.2975" y="2" relative="1" as="geometry">
            <mxPoint as="offset" />
          </mxGeometry>
        </mxCell>
        <mxCell id="LrvvoULdtSDVL5VCerUx-10" value="" style="endArrow=classic;html=1;rounded=0;fontSize=16;exitX=0.5;exitY=1;exitDx=0;exitDy=0;entryX=0.5;entryY=0;entryDx=0;entryDy=0;strokeWidth=3;" parent="1" source="LrvvoULdtSDVL5VCerUx-2" target="LrvvoULdtSDVL5VCerUx-4" edge="1">
          <mxGeometry width="50" height="50" relative="1" as="geometry">
            <mxPoint x="424" y="330" as="sourcePoint" />
            <mxPoint x="144" y="440" as="targetPoint" />
          </mxGeometry>
        </mxCell>
        <mxCell id="LrvvoULdtSDVL5VCerUx-11" value="Pass4" style="edgeLabel;html=1;align=center;verticalAlign=middle;resizable=0;points=[];fontSize=16;" parent="LrvvoULdtSDVL5VCerUx-10" vertex="1" connectable="0">
          <mxGeometry x="0.2975" y="2" relative="1" as="geometry">
            <mxPoint as="offset" />
          </mxGeometry>
        </mxCell>
        <mxCell id="LrvvoULdtSDVL5VCerUx-12" value="" style="endArrow=classic;html=1;rounded=0;fontSize=16;entryX=0.5;entryY=0;entryDx=0;entryDy=0;strokeWidth=3;" parent="1" target="LrvvoULdtSDVL5VCerUx-3" edge="1">
          <mxGeometry width="50" height="50" relative="1" as="geometry">
            <mxPoint x="414" y="320" as="sourcePoint" />
            <mxPoint x="154" y="450" as="targetPoint" />
          </mxGeometry>
        </mxCell>
        <mxCell id="LrvvoULdtSDVL5VCerUx-13" value="Dribble" style="edgeLabel;html=1;align=center;verticalAlign=middle;resizable=0;points=[];fontSize=16;" parent="LrvvoULdtSDVL5VCerUx-12" vertex="1" connectable="0">
          <mxGeometry x="0.2975" y="2" relative="1" as="geometry">
            <mxPoint as="offset" />
          </mxGeometry>
        </mxCell>
        <mxCell id="LrvvoULdtSDVL5VCerUx-14" value="" style="endArrow=classic;html=1;rounded=0;fontSize=16;exitX=0.5;exitY=1;exitDx=0;exitDy=0;strokeWidth=3;" parent="1" source="LrvvoULdtSDVL5VCerUx-5" target="LrvvoULdtSDVL5VCerUx-15" edge="1">
          <mxGeometry width="50" height="50" relative="1" as="geometry">
            <mxPoint x="280" y="600" as="sourcePoint" />
            <mxPoint x="134" y="560" as="targetPoint" />
          </mxGeometry>
        </mxCell>
        <mxCell id="LrvvoULdtSDVL5VCerUx-15" value="" style="rounded=0;whiteSpace=wrap;html=1;fontSize=16;" parent="1" vertex="1">
          <mxGeometry x="74" y="555" width="120" height="60" as="geometry" />
        </mxCell>
        <mxCell id="LrvvoULdtSDVL5VCerUx-16" value="" style="endArrow=classic;html=1;rounded=0;fontSize=16;exitX=0.5;exitY=1;exitDx=0;exitDy=0;strokeWidth=3;entryX=0;entryY=0.5;entryDx=0;entryDy=0;" parent="1" source="LrvvoULdtSDVL5VCerUx-5" edge="1" target="LrvvoULdtSDVL5VCerUx-19">
          <mxGeometry width="50" height="50" relative="1" as="geometry">
            <mxPoint x="144" y="510" as="sourcePoint" />
            <mxPoint x="360" y="560" as="targetPoint" />
          </mxGeometry>
        </mxCell>
        <mxCell id="LrvvoULdtSDVL5VCerUx-17" value="" style="endArrow=none;dashed=1;html=1;dashPattern=1 3;strokeWidth=7;rounded=0;fontSize=16;exitX=1;exitY=0.5;exitDx=0;exitDy=0;" parent="1" edge="1" source="LrvvoULdtSDVL5VCerUx-15">
          <mxGeometry width="50" height="50" relative="1" as="geometry">
            <mxPoint x="250" y="587.5" as="sourcePoint" />
            <mxPoint x="480" y="590" as="targetPoint" />
          </mxGeometry>
        </mxCell>
        <mxCell id="LrvvoULdtSDVL5VCerUx-19" value="" style="rounded=0;whiteSpace=wrap;html=1;fontSize=16;" parent="1" vertex="1">
          <mxGeometry x="484" y="555" width="120" height="60" as="geometry" />
        </mxCell>
      </root>
    </mxGraphModel>
  </diagram>
</mxfile>
